<svg xmlns="http://www.w3.org/2000/svg" xmlns:xlink="http://www.w3.org/1999/xlink" width="500" zoomAndPan="magnify" viewBox="0 0 375 374.999991" height="500" preserveAspectRatio="xMidYMid meet" version="1.0"><defs><clipPath id="96a4b5254d"><path d="M 0 145 L 371 145 L 371 245 L 0 245 Z M 0 145 " clip-rule="nonzero"/></clipPath><clipPath id="411754d241"><path d="M 199.914062 0 L 375.140625 199.460938 L 175.113281 375.183594 L -0.113281 175.722656 Z M 199.914062 0 " clip-rule="nonzero"/></clipPath><clipPath id="2e75e3832e"><path d="M 199.914062 0 L 375.140625 199.460938 L 175.113281 375.183594 L -0.113281 175.722656 Z M 199.914062 0 " clip-rule="nonzero"/></clipPath></defs><g clip-path="url(#96a4b5254d)"><g clip-path="url(#411754d241)"><g clip-path="url(#2e75e3832e)"><path fill="#000000" d="M 185.324219 219.5 C 183.644531 219.292969 181.632812 218.652344 181.476562 218.269531 C 181.363281 217.996094 181.960938 218.105469 183.671875 218.671875 C 184.964844 219.097656 186.058594 219.480469 186.101562 219.523438 C 186.144531 219.566406 185.792969 219.554688 185.324219 219.5 Z M 153.390625 225.785156 C 152.511719 226.277344 151.316406 226.785156 150.738281 226.917969 C 149.3125 227.246094 146.710938 227.039062 143.433594 226.332031 C 136.816406 224.90625 133.734375 224.285156 132.074219 224.046875 C 130.578125 223.832031 130.425781 223.773438 131.109375 223.679688 C 132.335938 223.511719 135.050781 223.492188 137.753906 223.628906 C 139.082031 223.699219 141.636719 223.726562 143.429688 223.6875 C 145.226562 223.648438 148.070312 223.730469 149.75 223.875 C 152.960938 224.140625 154.644531 223.964844 156.175781 223.191406 L 157.105469 222.726562 L 156.046875 223.808594 C 155.359375 224.519531 154.441406 225.203125 153.390625 225.785156 Z M 141.007812 216.304688 C 139.179688 216.082031 136.527344 215.816406 135.109375 215.714844 C 132.753906 215.542969 129.9375 215.015625 127.429688 214.269531 L 126.449219 213.980469 L 127.429688 213.96875 C 127.96875 213.960938 129.753906 214.1875 131.402344 214.472656 C 133.050781 214.753906 135.832031 215.136719 137.585938 215.320312 C 139.339844 215.503906 141.589844 215.84375 142.585938 216.070312 C 144.445312 216.5 144.523438 216.523438 144.398438 216.640625 C 144.359375 216.675781 142.832031 216.527344 141.007812 216.304688 Z M 186.507812 211.015625 C 187.980469 210.964844 191.121094 209.632812 192.21875 208.597656 C 192.851562 208 192.96875 207.757812 192.902344 207.195312 L 192.816406 206.515625 L 195.175781 205.605469 C 196.472656 205.101562 198.585938 204.449219 199.875 204.152344 C 203.65625 203.277344 205.871094 202.359375 209.320312 200.238281 C 212.933594 198.011719 213.824219 197.589844 215.4375 197.339844 C 216.089844 197.238281 217.429688 196.886719 218.410156 196.554688 C 222.761719 195.078125 224.222656 194.714844 228.902344 193.917969 C 231.636719 193.457031 235.039062 192.730469 236.457031 192.304688 C 239.332031 191.445312 240.957031 191.085938 241.117188 191.273438 C 241.175781 191.339844 241.503906 191.882812 241.84375 192.480469 C 242.550781 193.707031 242.925781 194.886719 243.34375 197.152344 C 243.503906 198.011719 243.675781 198.816406 243.730469 198.933594 C 243.785156 199.050781 243.113281 199.390625 242.226562 199.691406 C 241.347656 199.992188 239.5625 200.636719 238.265625 201.121094 C 236.117188 201.921875 235.679688 201.996094 233.273438 201.941406 C 229.554688 201.855469 224.535156 202.203125 223.15625 202.640625 C 222.515625 202.84375 220.4375 203.640625 218.546875 204.410156 C 214.808594 205.933594 213.203125 206.300781 208.214844 206.75 C 204.921875 207.050781 204.867188 207.070312 201.746094 209.199219 C 199.054688 211.035156 196.90625 211.945312 194.191406 212.410156 C 191.507812 212.867188 189.796875 212.746094 187.609375 211.941406 C 185.9375 211.332031 185.601562 211.046875 186.507812 211.015625 Z M 184.164062 209.363281 C 184.175781 209.070312 187.257812 207.789062 188.53125 207.550781 C 189.558594 207.359375 191.042969 207.371094 191.230469 207.570312 C 191.253906 207.59375 190.800781 207.871094 190.226562 208.183594 C 188.695312 209.015625 186.492188 209.628906 185.25 209.574219 C 184.652344 209.546875 184.164062 209.453125 184.164062 209.363281 Z M 244.933594 191.128906 C 246.015625 191.1875 246.800781 191.832031 247.109375 192.921875 C 247.210938 193.277344 247.269531 193.929688 247.242188 194.375 L 247.191406 195.179688 L 246.867188 194.574219 C 246.691406 194.238281 245.953125 193.332031 245.222656 192.558594 C 244.492188 191.785156 243.914062 191.136719 243.9375 191.117188 C 243.957031 191.097656 244.40625 191.101562 244.933594 191.128906 Z M 246.460938 198.089844 L 245.785156 198.160156 C 245.164062 198.226562 245.097656 198.183594 244.988281 197.648438 C 244.925781 197.328125 244.683594 196.148438 244.453125 195.03125 L 244.03125 192.996094 L 244.679688 193.90625 C 245.035156 194.402344 245.582031 195.550781 245.894531 196.449219 Z M 179.933594 208.832031 C 178.261719 208.042969 177.507812 207.589844 177.644531 207.460938 C 177.761719 207.351562 178.769531 206.742188 179.890625 206.105469 C 181.011719 205.464844 182.125 204.757812 182.367188 204.527344 C 182.898438 204.027344 183.050781 204.148438 183.140625 205.125 C 183.179688 205.59375 182.964844 206.261719 182.539062 206.980469 C 181.730469 208.339844 181.675781 208.636719 182.101562 209.40625 C 182.40625 209.960938 182.238281 209.917969 179.933594 208.832031 Z M 178.394531 205.234375 C 175.726562 206.722656 175.046875 206.980469 174.046875 206.890625 L 173.386719 206.832031 L 174.046875 206.40625 C 174.878906 205.867188 181.085938 203.414062 180.941406 203.675781 C 180.882812 203.785156 179.738281 204.484375 178.394531 205.234375 Z M 119.195312 183.628906 C 119.359375 182.429688 120.480469 179.714844 121.425781 178.230469 C 122.367188 176.746094 123.875 174.796875 123.871094 175.066406 C 123.867188 175.15625 123.339844 176.476562 122.695312 178.003906 C 121.609375 180.578125 120.761719 182.125 119.566406 183.707031 L 119.097656 184.332031 Z M 247.847656 213.371094 C 248.75 213.101562 249.957031 212.605469 250.53125 212.265625 C 251.414062 211.738281 251.730469 211.683594 252.636719 211.878906 C 254.796875 212.347656 255.585938 212.734375 255.964844 213.503906 C 256.25 214.082031 256.71875 214.464844 258.617188 215.671875 C 260.71875 217.015625 261.878906 217.910156 261.710938 218.070312 C 261.671875 218.105469 260.972656 217.867188 260.15625 217.542969 C 257.230469 216.382812 256.460938 216.503906 256.378906 218.136719 C 256.339844 218.929688 256.3125 218.96875 255.945312 218.769531 C 255.730469 218.652344 255.121094 218.355469 254.589844 218.105469 C 254.054688 217.855469 252.984375 217.292969 252.207031 216.859375 C 251.429688 216.425781 250.003906 215.742188 249.039062 215.339844 C 247.453125 214.683594 246.074219 213.988281 246.171875 213.894531 C 246.195312 213.875 246.949219 213.640625 247.847656 213.371094 Z M 270.019531 212.101562 C 271.449219 212.027344 273.664062 211.769531 274.9375 211.527344 C 282.394531 210.117188 284.421875 210.011719 280.8125 211.214844 C 278.214844 212.082031 270.359375 212.828125 268.265625 212.40625 C 267.6875 212.289062 268.242188 212.191406 270.019531 212.101562 Z M 209.902344 217.746094 C 208.6875 218.253906 207.015625 218.679688 207.023438 218.484375 C 207.03125 218.183594 209.269531 216.957031 210.699219 216.46875 L 212.304688 215.921875 L 211.695312 216.585938 C 211.339844 216.972656 210.585938 217.460938 209.902344 217.746094 Z M 188.867188 221.515625 C 191.15625 221.269531 191.777344 220.761719 191.53125 219.335938 C 191.304688 218.027344 190.386719 216.035156 189.433594 214.78125 L 188.65625 213.761719 L 189.351562 213.949219 C 191.210938 214.453125 195.800781 213.863281 198.46875 212.78125 C 199.410156 212.398438 201.253906 211.347656 202.796875 210.3125 L 205.488281 208.507812 L 208.441406 208.242188 C 214.195312 207.722656 214.957031 207.535156 220.335938 205.347656 C 222.300781 204.546875 224.203125 203.859375 224.558594 203.824219 C 225.527344 203.722656 230.652344 203.378906 231.539062 203.355469 L 232.308594 203.332031 L 231.738281 203.714844 C 231.425781 203.925781 230.300781 204.757812 229.238281 205.566406 C 226.304688 207.804688 220.386719 211.328125 217.515625 212.550781 C 216.132812 213.144531 213.605469 214.035156 211.90625 214.53125 C 208.644531 215.484375 207.574219 215.996094 206.25 217.234375 C 204.730469 218.652344 205.109375 220.136719 206.96875 220.03125 C 208.246094 219.960938 210.460938 219.265625 211.675781 218.558594 C 212.664062 217.984375 212.683594 217.980469 212.207031 218.535156 C 211.402344 219.460938 210.65625 219.832031 208.570312 220.339844 C 206.515625 220.835938 205.847656 221.292969 206.007812 222.085938 C 206.136719 222.730469 208.367188 223.46875 210.359375 223.523438 C 212.855469 223.589844 217.304688 222.917969 221.429688 221.847656 C 227.234375 220.339844 228 219.972656 232.964844 216.320312 C 234.625 215.101562 236.300781 213.984375 236.695312 213.835938 C 237.390625 213.578125 238.617188 213.613281 242.066406 213.992188 C 243.320312 214.132812 244.117188 214.382812 245.066406 214.941406 C 245.773438 215.355469 247.148438 216.042969 248.113281 216.46875 C 250.875 217.675781 254.59375 219.664062 255.199219 220.253906 C 255.6875 220.734375 255.707031 220.855469 255.363281 221.351562 C 254.308594 222.894531 251.875 224.761719 248.585938 226.558594 C 247.757812 227.007812 246.5625 227.765625 245.925781 228.238281 C 245.292969 228.714844 244.539062 229.144531 244.25 229.199219 C 243.582031 229.320312 236.15625 235.765625 235.363281 236.910156 C 234.421875 238.269531 234.808594 240.085938 236.585938 242.621094 C 237.613281 244.09375 239.800781 244.511719 242.570312 243.769531 C 243.203125 243.601562 246.320312 242.261719 249.492188 240.800781 C 255.226562 238.152344 256.070312 237.671875 262.582031 233.355469 C 267.253906 230.257812 270.070312 229.109375 276.492188 227.683594 C 278.277344 227.289062 281.09375 226.4375 282.75 225.789062 C 284.402344 225.144531 286.253906 224.421875 286.863281 224.183594 C 288.828125 223.410156 295.117188 220.175781 297.6875 218.613281 C 299.820312 217.320312 300.386719 216.875 301.566406 215.597656 C 304.675781 212.226562 308.265625 206.765625 309.839844 203.011719 C 310.882812 200.53125 310.949219 200.425781 312.195312 199.382812 C 313.230469 198.515625 313.765625 198.226562 314.945312 197.90625 C 317.253906 197.277344 321.875 196.855469 324.839844 197 C 329.023438 197.210938 329.878906 197.351562 345.242188 200.347656 C 357.039062 202.648438 365.125 203.8125 367.542969 203.558594 C 370.191406 203.28125 371.207031 202.726562 370.472656 201.953125 C 370.242188 201.710938 369.726562 201.695312 368.714844 201.894531 C 367.929688 202.054688 366.472656 202.128906 365.480469 202.0625 C 362.074219 201.835938 352.992188 200.378906 345.933594 198.9375 C 338.574219 197.429688 330.0625 195.925781 327.292969 195.648438 C 321.777344 195.097656 315.433594 195.753906 312.710938 197.15625 C 310.796875 198.140625 309.550781 199.621094 308.566406 202.09375 C 307.347656 205.15625 305.292969 208.539062 302.261719 212.480469 C 299.710938 215.800781 298.019531 217.007812 290.8125 220.640625 C 285.378906 223.378906 279.832031 225.441406 275.128906 226.464844 C 269.613281 227.667969 266.273438 229.066406 261.914062 232.007812 C 257.675781 234.867188 254.167969 237.003906 252.667969 237.652344 C 251.777344 238.035156 250.066406 238.828125 248.863281 239.414062 C 243.082031 242.242188 240.957031 242.941406 239.242188 242.574219 C 238.726562 242.464844 238.101562 242.164062 237.859375 241.902344 C 237.015625 241.003906 236.210938 239.238281 236.289062 238.46875 C 236.363281 237.730469 236.410156 237.679688 240.09375 234.367188 C 242.148438 232.519531 244.078125 230.90625 244.386719 230.78125 C 245.117188 230.488281 245.988281 230.746094 249.019531 232.15625 C 251.191406 233.167969 251.554688 233.269531 251.949219 232.976562 C 252.613281 232.484375 252.472656 231.820312 251.476562 230.761719 C 250.820312 230.066406 250.277344 229.722656 249.1875 229.320312 C 248.402344 229.03125 247.835938 228.71875 247.933594 228.628906 C 248.03125 228.542969 248.574219 228.238281 249.144531 227.957031 C 253.996094 225.546875 257.78125 221.773438 257.855469 219.269531 L 257.882812 218.378906 L 259.261719 218.878906 C 260.023438 219.152344 261.515625 219.820312 262.578125 220.363281 C 263.640625 220.90625 264.988281 221.46875 265.570312 221.617188 C 268.550781 222.382812 270.753906 221.972656 270.25 220.75 C 270.082031 220.339844 269.476562 220.132812 267.691406 219.875 C 265.390625 219.542969 264.640625 219.136719 262.964844 217.289062 C 261.785156 215.996094 261.132812 215.453125 259.574219 214.5 C 258.511719 213.847656 257.644531 213.257812 257.648438 213.1875 C 257.652344 213.007812 263.324219 213.289062 265.507812 213.582031 C 268.722656 214.007812 271.746094 214.046875 275.214844 213.710938 C 281.347656 213.109375 285.460938 211.5 285.164062 209.8125 C 284.929688 208.507812 283.242188 208.492188 276.285156 209.738281 C 274 210.144531 270.839844 210.558594 269.261719 210.65625 C 264.898438 210.921875 259.492188 210.65625 256.703125 210.042969 C 255.339844 209.742188 253.820312 209.5 253.328125 209.507812 C 252.425781 209.519531 251.136719 210.039062 249.832031 210.910156 C 249.445312 211.167969 248.175781 211.660156 247.011719 212 C 244.859375 212.625 243.46875 212.65625 239.183594 212.179688 C 236.765625 211.910156 236.152344 212.164062 232.222656 215.035156 C 227.183594 218.71875 226.835938 218.878906 220.113281 220.621094 C 217.203125 221.378906 211.65625 222.144531 209.890625 222.03125 C 208.734375 221.960938 208.816406 221.859375 210.410156 221.390625 C 211.1875 221.164062 212.039062 220.707031 212.71875 220.164062 C 213.691406 219.386719 213.859375 219.132812 214.464844 217.578125 C 214.835938 216.632812 215.078125 215.714844 215.007812 215.539062 C 214.898438 215.273438 215.066406 215.152344 216.050781 214.800781 C 218.0625 214.082031 221.128906 212.566406 223.546875 211.101562 C 227.148438 208.914062 227.652344 208.582031 229.445312 207.21875 C 230.371094 206.515625 231.597656 205.644531 232.171875 205.277344 C 233.253906 204.59375 240.398438 201.84375 243.558594 200.898438 C 247.3125 199.777344 253.09375 197.601562 254.445312 196.804688 C 256.75 195.441406 257.679688 194.34375 257.074219 193.703125 C 256.710938 193.316406 255.621094 193.71875 252.417969 195.421875 C 250.660156 196.355469 248.933594 197.21875 248.585938 197.335938 L 247.953125 197.550781 L 248.394531 196.167969 C 249.148438 193.820312 248.589844 191.484375 246.964844 190.207031 C 246.324219 189.707031 245.886719 189.621094 243.859375 189.605469 C 240.886719 189.585938 239.792969 189.757812 236.410156 190.777344 C 234.914062 191.226562 232.085938 191.851562 230.128906 192.164062 C 224.871094 193.007812 222.527344 193.546875 219.5 194.601562 C 218.003906 195.125 216.042969 195.683594 215.144531 195.851562 C 213.117188 196.222656 212.246094 196.625 208.769531 198.804688 C 205.792969 200.664062 203.375 201.753906 200.988281 202.304688 C 199.109375 202.734375 195.257812 203.933594 193.339844 204.683594 C 192.535156 204.996094 190.71875 205.460938 189.304688 205.71875 C 187.890625 205.972656 186.261719 206.402344 185.683594 206.675781 C 184.296875 207.332031 184.097656 207.308594 184.449219 206.523438 C 184.609375 206.164062 184.675781 205.175781 184.597656 204.328125 C 184.515625 203.480469 184.433594 202.609375 184.417969 202.394531 C 184.394531 202.0625 184.734375 201.847656 186.515625 201.074219 C 187.683594 200.566406 190.390625 199.257812 192.535156 198.167969 C 199.066406 194.839844 200.644531 194.28125 206.835938 193.117188 C 216.726562 191.25 221.476562 190.472656 226.34375 189.917969 C 243.859375 187.929688 253.785156 186.136719 265.132812 182.921875 C 269.820312 181.589844 272.484375 180.636719 278.058594 178.285156 C 285.113281 175.3125 290.175781 173.808594 297.28125 172.578125 C 303.023438 171.582031 308.28125 171.113281 326.203125 169.996094 C 330.640625 169.71875 336.851562 169.230469 340.011719 168.914062 C 343.175781 168.59375 345.867188 168.363281 345.992188 168.394531 C 346.121094 168.429688 346.402344 168.292969 346.621094 168.089844 C 347.136719 167.601562 346.574219 166.972656 345.625 166.972656 C 345.253906 166.976562 343.996094 167.078125 342.832031 167.203125 C 338.734375 167.640625 334.304688 167.992188 328.507812 168.332031 C 319.621094 168.855469 306.617188 169.804688 302.75 170.214844 C 299.152344 170.59375 291.609375 172.082031 287.949219 173.132812 C 283.972656 174.277344 280.761719 175.441406 276.695312 177.21875 C 272.675781 178.976562 268.601562 180.394531 263.59375 181.78125 C 252.808594 184.773438 242.625 186.566406 225.40625 188.507812 C 218.867188 189.246094 204.324219 191.863281 200.679688 192.960938 C 198.023438 193.757812 196.183594 194.558594 192.171875 196.652344 C 188.367188 198.640625 182.226562 201.410156 178.082031 203.011719 C 174.308594 204.46875 173.085938 205.082031 172.121094 205.992188 C 171.386719 206.683594 171.308594 206.699219 169.417969 206.492188 C 168.351562 206.375 166.429688 206.042969 165.152344 205.753906 C 163.871094 205.464844 161.0625 205.144531 158.90625 205.042969 C 155.472656 204.882812 153.746094 204.601562 150.292969 203.648438 C 149.726562 203.492188 149.398438 203.5625 148.9375 203.925781 L 148.324219 204.414062 L 147.164062 203.167969 C 146.210938 202.152344 145.765625 201.835938 144.691406 201.410156 C 142.792969 200.660156 139.726562 200.054688 136.785156 199.855469 C 132.058594 199.535156 128.625 198.652344 126.140625 197.125 C 125.066406 196.464844 122.378906 193.328125 121.8125 192.066406 C 121.210938 190.734375 121.066406 189.167969 121.382812 187.40625 C 121.652344 185.921875 123.886719 179.328125 124.980469 176.800781 C 125.230469 176.222656 125.441406 175.535156 125.449219 175.273438 C 125.46875 174.683594 124.933594 174.40625 124.335938 174.699219 C 123.605469 175.058594 124.835938 173.148438 126.222656 171.769531 C 127.523438 170.476562 128.511719 170.03125 131.007812 169.601562 C 132.375 169.371094 133.875 168.757812 136.117188 167.523438 C 136.808594 167.140625 138.988281 166.199219 140.964844 165.425781 C 146.488281 163.269531 148.457031 161.957031 152.386719 157.804688 C 155.136719 154.898438 156.839844 152.714844 157.328125 151.472656 C 158.105469 149.472656 157.578125 147.183594 156.027344 145.824219 C 155.277344 145.167969 155 145.066406 154.085938 145.105469 C 152.671875 145.164062 151.847656 145.648438 148.597656 148.332031 C 144.523438 151.695312 144.382812 151.769531 140.085938 152.855469 C 138 153.386719 134.304688 154.421875 131.875 155.15625 C 129.449219 155.894531 126.660156 156.589844 125.679688 156.703125 C 124.703125 156.8125 121.984375 156.84375 119.644531 156.765625 C 114.90625 156.605469 115.257812 156.515625 110.898438 159.050781 C 107.738281 160.886719 99.4375 163.304688 94.179688 163.917969 C 91.328125 164.25 88.425781 163.867188 80.382812 162.09375 C 72.339844 160.324219 67.894531 159.382812 62.246094 158.265625 C 56.5 157.128906 47.429688 155.144531 38.578125 153.085938 C 31.960938 151.546875 28.386719 151.15625 27.609375 151.890625 C 27.171875 152.304688 27.226562 152.816406 27.722656 152.949219 C 27.882812 152.992188 28.414062 152.980469 28.902344 152.921875 C 30.210938 152.761719 33.191406 153.242188 36.910156 154.203125 C 38.714844 154.671875 41.195312 155.269531 42.421875 155.535156 C 43.648438 155.796875 46.925781 156.53125 49.707031 157.164062 C 52.492188 157.796875 57.816406 158.921875 61.546875 159.667969 C 68.097656 160.972656 73.351562 162.082031 81.265625 163.84375 C 85.980469 164.886719 90.113281 165.546875 92.042969 165.558594 C 95.320312 165.578125 100.121094 164.59375 105.824219 162.730469 C 109.25 161.609375 110.378906 161.132812 112.28125 159.992188 C 113.546875 159.234375 114.902344 158.515625 115.292969 158.398438 C 115.683594 158.28125 118.019531 158.222656 120.480469 158.269531 C 122.945312 158.3125 125.609375 158.265625 126.402344 158.160156 C 127.199219 158.054688 130.046875 157.308594 132.726562 156.496094 C 135.40625 155.683594 138.949219 154.691406 140.597656 154.292969 C 144.910156 153.246094 145.011719 153.195312 148.351562 150.394531 C 152.960938 146.53125 154.132812 145.984375 155.246094 147.175781 C 156.03125 148.015625 156.34375 149.554688 155.96875 150.722656 C 155.554688 152.007812 153.578125 154.519531 150.53125 157.625 C 147.429688 160.789062 145.558594 161.976562 140.5625 163.957031 C 138.617188 164.726562 136.015625 165.875 134.777344 166.511719 C 132.351562 167.757812 131.871094 167.933594 130.039062 168.234375 C 127.113281 168.714844 125.433594 170.003906 122.566406 173.96875 C 119.183594 178.648438 117.804688 181.542969 117.558594 184.496094 C 117.382812 186.621094 118.203125 187.289062 119.515625 186.082031 L 120.175781 185.476562 L 120.019531 186.117188 C 119.710938 187.40625 119.75 191.035156 120.085938 191.976562 C 120.3125 192.617188 121.082031 193.765625 122.359375 195.375 L 124.292969 197.804688 L 126.324219 198.898438 C 128.875 200.277344 131.65625 200.964844 136.066406 201.308594 C 139.734375 201.59375 142.921875 202.234375 144.523438 203.007812 C 145.402344 203.429688 145.804688 203.777344 146.726562 204.917969 C 147.734375 206.15625 147.921875 206.308594 148.4375 206.296875 C 148.875 206.289062 149.136719 206.125 149.484375 205.648438 C 149.925781 205.042969 149.992188 205.03125 150.945312 205.375 C 152.71875 206.007812 155.050781 206.355469 159.175781 206.59375 C 161.390625 206.722656 164.171875 207.050781 165.359375 207.324219 C 166.542969 207.601562 168.683594 207.949219 170.113281 208.101562 C 176.839844 208.816406 176.628906 208.75 182.496094 211.84375 C 187.585938 214.519531 188.761719 215.625 189.796875 218.695312 C 190.160156 219.769531 190.140625 219.832031 189.414062 219.910156 C 188.992188 219.957031 188.894531 219.882812 188.808594 219.457031 C 188.6875 218.832031 187.441406 218.230469 184.253906 217.246094 C 183.085938 216.886719 182.074219 216.535156 182.007812 216.460938 C 181.75 216.1875 180.550781 216.257812 180.222656 216.566406 C 180.03125 216.746094 179.859375 217.136719 179.835938 217.433594 C 179.8125 217.734375 179.742188 217.972656 179.679688 217.960938 C 179.617188 217.953125 178.8125 217.699219 177.894531 217.394531 C 175.21875 216.507812 173.089844 216.050781 170.164062 215.726562 C 167.226562 215.398438 160.398438 215.558594 157.617188 216.023438 C 153.914062 216.636719 150.734375 216.429688 145.578125 215.226562 C 143.089844 214.648438 139.558594 214.011719 137.730469 213.816406 C 135.902344 213.617188 132.945312 213.207031 131.160156 212.902344 C 126.976562 212.191406 123.40625 212.457031 123.136719 213.5 C 122.9375 214.265625 123.355469 214.542969 125.996094 215.394531 C 129.324219 216.464844 131.511719 216.910156 134.730469 217.171875 C 136.160156 217.289062 138.527344 217.539062 139.988281 217.726562 C 141.453125 217.914062 143.648438 218.101562 144.867188 218.140625 C 148.664062 218.269531 155.089844 217.988281 157.351562 217.601562 C 159.433594 217.242188 166.113281 216.890625 168.128906 217.035156 L 169.105469 217.101562 L 168.277344 217.351562 C 167.820312 217.488281 166.191406 217.902344 164.65625 218.273438 C 161.414062 219.054688 160.046875 219.554688 157.378906 220.933594 C 156.316406 221.484375 155.023438 222.0625 154.503906 222.222656 C 153.972656 222.386719 151.382812 222.433594 148.542969 222.335938 C 137.875 221.960938 132.359375 221.96875 129.1875 222.351562 C 126.0625 222.730469 119.707031 223.738281 118.628906 224.027344 C 118.335938 224.105469 117.015625 224.464844 115.691406 224.824219 C 113.070312 225.535156 111.738281 225.601562 110.304688 225.085938 C 108.882812 224.578125 108.011719 223.855469 102.835938 218.910156 C 97.574219 213.882812 97.347656 213.679688 93.617188 210.628906 C 89.953125 207.628906 87.195312 205.703125 79.847656 201.015625 C 76.300781 198.753906 72.339844 196.0625 71.039062 195.03125 C 69.738281 194.003906 67.613281 192.386719 66.3125 191.441406 C 65.015625 190.496094 62.855469 188.863281 61.511719 187.8125 C 56.109375 183.582031 52.335938 182.039062 46.199219 181.566406 C 44.726562 181.449219 41.875 181.140625 39.863281 180.878906 C 37.851562 180.613281 34.789062 180.277344 33.054688 180.132812 C 31.320312 179.988281 28.546875 179.660156 26.886719 179.40625 C 25.226562 179.148438 21.523438 178.625 18.652344 178.238281 C 12.703125 177.433594 8.890625 176.765625 4.304688 175.726562 C 2.542969 175.328125 0.953125 175.0625 0.773438 175.136719 C 0.480469 175.257812 0.40625 176.105469 0.667969 176.378906 C 1.082031 176.824219 11.988281 178.882812 18.367188 179.722656 C 20.777344 180.039062 24.4375 180.550781 26.5 180.859375 C 28.566406 181.167969 31.386719 181.511719 32.777344 181.621094 C 34.164062 181.734375 37.019531 182.046875 39.121094 182.320312 C 41.222656 182.59375 44.078125 182.90625 45.460938 183.019531 C 48.457031 183.265625 50.480469 183.609375 52.28125 184.179688 C 54.195312 184.789062 57.617188 186.699219 59.761719 188.359375 C 60.78125 189.152344 63.160156 190.941406 65.042969 192.335938 C 66.929688 193.730469 69.351562 195.578125 70.425781 196.445312 C 71.5 197.3125 75.292969 199.882812 78.847656 202.15625 C 82.40625 204.429688 86.300781 206.972656 87.503906 207.808594 C 91.101562 210.304688 95.953125 214.410156 100.921875 219.148438 C 103.496094 221.605469 106.253906 224.160156 107.050781 224.828125 C 109.832031 227.15625 111.960938 227.4375 116.9375 226.125 C 118.867188 225.613281 120.535156 225.355469 121.953125 225.339844 C 123.125 225.328125 125.46875 225.300781 127.164062 225.273438 C 130.488281 225.226562 132.132812 225.472656 140.808594 227.308594 C 150.925781 229.449219 152.132812 229.203125 158.402344 223.78125 C 161.570312 221.039062 163.160156 219.953125 164.109375 219.886719 C 164.28125 219.875 165.785156 219.5 167.449219 219.050781 C 172.238281 217.761719 173.460938 217.664062 175.917969 218.375 C 178.898438 219.238281 180.71875 219.921875 181.105469 220.335938 C 182.054688 221.34375 185.546875 221.878906 188.867188 221.515625 " fill-opacity="1" fill-rule="nonzero"/></g></g></g></svg>